<?xml version="1.0" encoding="UTF-8" standalone="no"?>
<svg
   xmlns:dc="http://purl.org/dc/elements/1.1/"
   xmlns:cc="http://creativecommons.org/ns#"
   xmlns:rdf="http://www.w3.org/1999/02/22-rdf-syntax-ns#"
   xmlns:svg="http://www.w3.org/2000/svg"
   xmlns="http://www.w3.org/2000/svg"
   xmlns:sodipodi="http://sodipodi.sourceforge.net/DTD/sodipodi-0.dtd"
   xmlns:inkscape="http://www.inkscape.org/namespaces/inkscape"
   viewBox="0 0 512 512"
   version="1.1"
   id="svg54"
   sodipodi:docname="facebook.svg"
   inkscape:version="0.92.3 (2405546, 2018-03-11)">
  <metadata
     id="metadata60">
    <rdf:RDF>
      <cc:Work
         rdf:about="">
        <dc:format>image/svg+xml</dc:format>
        <dc:type
           rdf:resource="http://purl.org/dc/dcmitype/StillImage" />
      </cc:Work>
    </rdf:RDF>
  </metadata>
  <defs
     id="defs58" />
  <sodipodi:namedview
     pagecolor="#ffffff"
     bordercolor="#666666"
     borderopacity="1"
     objecttolerance="10"
     gridtolerance="10"
     guidetolerance="10"
     inkscape:pageopacity="0"
     inkscape:pageshadow="2"
     inkscape:window-width="1920"
     inkscape:window-height="1001"
     id="namedview56"
     showgrid="false"
     inkscape:zoom="0.4609375"
     inkscape:cx="256"
     inkscape:cy="256"
     inkscape:window-x="-9"
     inkscape:window-y="-9"
     inkscape:window-maximized="1"
     inkscape:current-layer="svg54" />
  <path
     fill="black"
     d="m75 512h167v-182h-60v-60h60v-75c0-41.355469 33.644531-75 75-75h75v60h-60c-16.542969 0-30 13.457031-30 30v60h87.292969l-10 60h-77.292969v182h135c41.355469 0 75-33.644531 75-75v-362c0-41.355469-33.644531-75-75-75h-362c-41.355469 0-75 33.644531-75 75v362c0 41.355469 33.644531 75 75 75zm-45-437c0-24.8125 20.1875-45 45-45h362c24.8125 0 45 20.1875 45 45v362c0 24.8125-20.1875 45-45 45h-105v-122h72.707031l20-120h-92.707031v-30h90v-120h-105c-57.898438 0-105 47.101562-105 105v45h-60v120h60v122h-137c-24.8125 0-45-20.1875-45-45zm0 0"
     id="path52" />
  <path
     style="fill:#ffffff;fill-opacity:1;stroke-width:2.16949153"
     d="M 60.79949,478.4399 C 50.592343,474.80157 38.30135,463.50963 34.236222,454.03579 31.764017,448.27427 31.240678,413.67626 31.240678,256 31.240678,48.537956 30.735856,57.330028 43.366433,44.815508 57.787897,30.526554 42.982007,31.457627 255.78305,31.457627 H 448.8678 l 9.21791,4.924214 c 5.06986,2.708318 11.90376,8.982414 15.18644,13.942437 l 5.96853,9.018223 0.57621,194.465899 0.57622,194.46589 -5.08364,9.62558 c -3.34856,6.34029 -8.66809,11.84694 -15.5858,16.13403 l -10.50218,6.50847 -58.21076,0.67179 -58.21073,0.67176 v -60.87515 -60.87518 h 36.39055 36.39055 l 9.31005,-56.94915 c 5.12052,-31.32203 9.8004,-58.65763 10.39972,-60.74576 1.01376,-3.53215 -2.16967,-3.79661 -45.7006,-3.79661 H 332.8 v -14.05768 -14.05768 l 45.01695,-0.58639 45.01695,-0.58639 V 149.69492 90.033898 l -56.25676,-0.579794 c -31.99844,-0.329782 -61.46673,0.381362 -68.33898,1.649193 -31.45143,5.802316 -61.73355,28.504553 -75.3192,56.466133 -9.22455,18.9857 -11.61049,32.15049 -11.61049,64.06278 v 27.01186 h -30.37288 -30.37288 v 60.74576 60.74576 h 30.37288 30.37288 v 60.74577 60.74576 l -71.05084,-0.0952 c -54.742999,-0.0733 -72.980522,-0.78306 -79.45814,-3.092 z"
     id="path62"
     inkscape:connector-curvature="0" />
  <path
     style="fill:#ffffff;fill-opacity:1;stroke-width:2.16949153"
     d="M 63.441655,479.51254 C 53.169386,476.40927 44.28849,469.97265 38.242249,461.24872 L 32.325424,452.71151 31.749207,258.21861 31.172991,63.725703 36.256628,54.100139 C 39.607603,47.755269 44.92192,42.256285 51.848852,37.966102 L 62.357439,31.457627 H 255.61262 c 191.18145,0 193.34829,0.04818 201.93314,4.490091 5.01101,2.592755 11.65737,8.884364 15.72882,14.889252 l 7.05084,10.399161 V 255.82043 450.40475 l -6.53045,10.29745 c -4.87315,7.68416 -9.41535,11.64056 -17.8983,15.58999 -11.11964,5.17699 -12.58765,5.29301 -67.23226,5.31373 L 332.8,481.62712 v -60.74576 -60.74577 h 36.38643 36.38641 l 9.87995,-59.67713 c 5.43397,-32.82244 9.39906,-60.15802 8.81132,-60.74577 -0.58775,-0.58774 -21.40761,-1.06862 -46.26638,-1.06862 H 332.8 v -14.1017 -14.10169 h 44.47458 44.47457 V 149.69492 88.949153 l -55.8644,0.03766 c -62.75179,0.0423 -77.18416,1.969256 -98.05137,13.091367 -18.09139,9.64261 -35.5233,27.72883 -44.63571,46.31111 -9.52585,19.42538 -11.8892,32.25015 -11.8892,64.51699 v 25.73779 h -30.37288 -30.37288 v 60.74576 60.74576 h 30.37288 30.37288 v 60.74577 60.74576 l -71.05084,-0.18636 c -39.07797,-0.10262 -73.645157,-0.97022 -76.815975,-1.92811 z"
     id="path64"
     inkscape:connector-curvature="0" />
  <path
     style="fill:#ffffff;fill-opacity:1;stroke-width:2.16949153"
     d="M 61.364222,478.63404 C 49.014467,474.22073 40.666516,467.18601 35.765863,457.06262 31.283083,447.80242 31.240678,445.91505 31.240678,255.65627 V 63.597705 l 5.049793,-9.561563 c 3.316697,-6.280021 8.656572,-11.795285 15.559003,-16.07004 l 10.509208,-6.508475 h 194.339308 194.3393 l 8.39871,5.220919 c 4.6193,2.871506 11.20913,9.652471 14.64407,15.068812 l 6.24535,9.847893 V 256 450.40475 l -6.53045,10.29745 c -4.87315,7.68416 -9.41535,11.64056 -17.8983,15.58999 -11.11964,5.17699 -12.58765,5.29301 -67.23226,5.31373 L 332.8,481.62712 v -60.69331 -60.6933 l 36.26539,-0.59483 36.2654,-0.59483 9.1589,-54.23729 c 5.0374,-29.83051 9.21966,-56.92203 9.29392,-60.20339 l 0.13503,-5.9661 H 378.35932 332.8 v -14.1017 -14.10169 h 44.47458 44.47457 v -60.9681 -60.968089 l -61.28813,0.949804 c -54.45149,0.843854 -62.80023,1.448151 -74.84343,5.417307 -36.45665,12.015268 -65.17459,44.660358 -71.95784,81.798028 -1.2932,7.08017 -2.35128,23.92084 -2.35128,37.42373 v 24.55071 h -30.37288 -30.37288 v 60.74576 60.74576 h 30.37288 30.37288 v 60.74577 60.74576 l -71.05084,-0.0952 c -52.366194,-0.0703 -73.113254,-0.83226 -78.893408,-2.89786 z"
     id="path66"
     inkscape:connector-curvature="0" />
  <path
     style="fill:#ffffff;fill-opacity:1;stroke-width:2.16949153"
     d="M 61.364222,478.63404 C 49.014467,474.22073 40.666516,467.18601 35.765863,457.06262 31.282541,447.8013 31.240678,445.92879 31.240678,254.65505 V 61.595251 l 6.403914,-10.097924 c 4.464802,-7.040262 9.718926,-11.777768 17.351736,-15.645605 l 10.947821,-5.547681 192.705841,0.576793 192.70584,0.576793 9.0477,5.988037 c 4.97624,3.29342 11.4944,9.86385 14.4848,14.600956 l 5.43709,8.612918 V 254.95858 c 0,189.71735 -0.10175,194.49865 -4.31895,202.76489 -4.83765,9.48256 -14.78353,17.73427 -25.83529,21.43455 -4.73981,1.58694 -27.02431,2.4691 -62.37288,2.4691 H 332.8 v -60.69331 -60.6933 l 36.31859,-0.59483 36.31857,-0.59483 9.3112,-57.37043 c 5.12115,-31.55373 8.82199,-58.64526 8.22408,-60.20339 -0.84562,-2.20367 -10.98149,-2.83296 -45.62979,-2.83296 H 332.8 v -14.1017 -14.10169 h 44.47458 44.47457 V 149.69492 88.949153 l -45.01695,0.07739 c -65.39698,0.112445 -83.92801,2.153388 -103.15114,11.360767 -27.36046,13.10493 -46.21124,34.17255 -55.87125,62.44162 -3.71652,10.87604 -5.02561,20.85667 -5.88919,44.89987 l -1.11041,30.91527 h -30.07375 -30.07375 v 60.74576 60.74577 h 30.37288 30.37288 v 60.74577 60.74576 l -71.05084,-0.0952 c -52.366194,-0.0703 -73.113254,-0.83226 -78.893408,-2.89786 z"
     id="path68"
     inkscape:connector-curvature="0" />
  <path
     style="fill:#ffffff;fill-opacity:1;stroke-width:2.16949153"
     d="M 55.787106,476.34671 C 47.99711,472.71973 42.658992,468.27119 38.431172,461.88308 L 32.325424,452.65749 31.749325,256.99729 31.173226,61.337118 38.2578,50.860023 C 42.6172,44.413076 49.020353,38.45768 54.903938,35.377904 l 9.561563,-5.005023 H 256.47605 448.48657 l 9.50244,5.568788 c 5.22633,3.062833 12.39005,9.555074 15.9194,14.427201 l 6.41701,8.858416 -0.0356,195.471104 -0.0358,195.4711 -4.86409,8.58774 c -2.67522,4.72324 -9.08657,11.55714 -14.2474,15.18644 l -9.38331,6.5987 -59.47962,0.6699 -59.47963,0.66989 v -60.87328 -60.87329 h 35.65041 c 32.09053,0 35.75944,-0.37912 36.7422,-3.79661 2.99716,-10.42234 18.83004,-113.97574 17.61313,-115.19686 -0.77464,-0.77732 -21.34283,-1.71321 -45.70709,-2.07975 L 332.8,238.39593 V 224.4183 210.44068 h 44.47458 44.47457 V 149.35703 88.273388 l -60.20339,1.287613 c -68.63095,1.467861 -78.67524,3.342942 -102.25542,19.089189 -34.11526,22.78129 -47.72825,54.01214 -47.91488,109.92608 l -0.067,20.0678 H 180.93558 150.5627 v 60.74576 60.74576 h 30.37288 30.37288 v 60.74577 60.74576 l -72.13559,-0.0217 c -71.688625,-0.0217 -72.2053,-0.0536 -83.385774,-5.25921 z"
     id="path70"
     inkscape:connector-curvature="0" />
  <path
     style="fill:#ffffff;fill-opacity:1;stroke-width:2.16949153"
     d="m 164.12203,28.746386 c 51.01017,-0.32427 134.48136,-0.32427 185.49153,0 51.01017,0.324271 9.27458,0.589583 -92.74576,0.589583 -102.02034,0 -143.75594,-0.265312 -92.74577,-0.589583 z"
     id="path72"
     inkscape:connector-curvature="0" />
  <path
     style="fill:#ffffff;fill-opacity:1;stroke-width:2.16949153"
     d="M 59.383854,509.05266 C 36.058765,504.02738 18.366802,489.50404 7.595635,466.53967 L 1.9525424,454.50847 V 254.91525 55.322034 L 7.9946628,43.85431 C 20.635589,19.862289 38.412012,6.5979362 63.788023,2.2225981 73.663581,0.51985161 134.07851,-0.0144164 265.54576,0.43839154 l 187.66102,0.64635426 13.52528,6.2471011 c 15.70027,7.2516811 31.10251,22.4935021 38.15359,37.7562011 l 4.72791,10.233986 V 256 456.67797 l -4.72791,10.23399 c -7.05108,15.26269 -22.45332,30.50452 -38.15359,37.7562 l -13.52528,6.24709 -75.38983,0.71409 -75.38983,0.71409 V 422.13782 331.9322 h 37.83806 c 20.81093,0 38.32988,-0.79579 38.931,-1.76839 1.27278,-2.05941 10.0106,-52.32833 10.0106,-57.59126 0,-3.17596 -4.63295,-3.5556 -43.38983,-3.5556 h -43.38983 l 0.004,-32 c 0.004,-35.31524 1.99263,-42.76815 13.70914,-51.37121 5.48815,-4.02976 9.79563,-4.56839 41.76272,-5.22223 l 35.64244,-0.72903 v -30.36666 -30.36665 l -48.27118,0.73475 -48.27119,0.73475 -12.53437,6.33546 c -14.78851,7.47482 -30.36247,23.33053 -36.97501,37.64395 -4.31434,9.33876 -4.78863,14.36165 -5.42197,57.42043 l -0.69407,47.18644 h -30.28075 -30.28076 l 0.60194,30.91525 0.60194,30.91526 29.83051,0.60359 29.83051,0.6036 V 422.02732 512 l -85.15255,-0.1818 c -57.048113,-0.12193 -89.110611,-1.03457 -97.144956,-2.76552 z m 153.585526,-87.62893 0.57617,-61.28814 H 183.13887 152.7322 v -59.66101 -59.66102 h 30.10909 30.10909 l 1.07304,-33.08475 c 0.85515,-26.36737 2.01186,-35.69208 5.69702,-45.92656 13.80808,-38.34804 44.85369,-63.367219 84.85448,-68.382893 10.09169,-1.265393 40.58433,-2.300713 67.76139,-2.300713 h 49.41284 v 58.532256 58.53225 l -45.01695,0.58639 -45.01695,0.58639 -0.63741,15.72882 -0.63742,15.72881 h 45.90433 45.90436 l -1.52127,12.47458 c -0.83668,6.86101 -4.85426,32.75569 -8.92793,57.54374 -4.07368,24.78805 -7.40669,45.53381 -7.40669,46.1017 0,0.56788 -12.06712,1.03252 -26.81585,1.03252 -14.7487,0 -31.3603,0.62288 -36.91463,1.3842 l -10.09879,1.38418 0.57565,60.9887 0.57565,60.98868 h 58.57628 58.57627 l 10.35366,-6.08603 c 5.69452,-3.34731 13.01655,-10.10989 16.27118,-15.028 l 5.91753,-8.94197 V 256 59.344145 l -5.91753,-8.941982 C 472.23801,45.484073 464.91598,38.721471 459.22146,35.374158 L 448.8678,29.288136 H 255.61292 62.358042 l -10.581387,6.541969 c -7.727021,4.777251 -12.228794,9.695468 -16.688471,18.232261 l -6.107079,11.690292 0.587414,193.293152 0.587413,193.29317 5.566887,8.05172 c 15.20522,21.99218 21.103122,23.24231 107.246671,22.73224 l 69.42373,-0.41108 z"
     id="path74"
     inkscape:connector-curvature="0" />
</svg>
