<?xml version="1.0" encoding="UTF-8" standalone="no"?>
<svg
   xmlns:dc="http://purl.org/dc/elements/1.1/"
   xmlns:cc="http://creativecommons.org/ns#"
   xmlns:rdf="http://www.w3.org/1999/02/22-rdf-syntax-ns#"
   xmlns:svg="http://www.w3.org/2000/svg"
   xmlns="http://www.w3.org/2000/svg"
   xmlns:sodipodi="http://sodipodi.sourceforge.net/DTD/sodipodi-0.dtd"
   xmlns:inkscape="http://www.inkscape.org/namespaces/inkscape"
   width="148"
   height="25"
   version="1.1"
   id="svg38"
   sodipodi:docname="logo-bookmark-footer.svg"
   inkscape:version="0.92.3 (2405546, 2018-03-11)">
  <metadata
     id="metadata44">
    <rdf:RDF>
      <cc:Work
         rdf:about="">
        <dc:format>image/svg+xml</dc:format>
        <dc:type
           rdf:resource="http://purl.org/dc/dcmitype/StillImage" />
        <dc:title></dc:title>
      </cc:Work>
    </rdf:RDF>
  </metadata>
  <defs
     id="defs42" />
  <sodipodi:namedview
     pagecolor="#ffffff"
     bordercolor="#666666"
     borderopacity="1"
     objecttolerance="10"
     gridtolerance="10"
     guidetolerance="10"
     inkscape:pageopacity="0"
     inkscape:pageshadow="2"
     inkscape:window-width="1920"
     inkscape:window-height="1001"
     id="namedview40"
     showgrid="false"
     inkscape:zoom="11.891892"
     inkscape:cx="74"
     inkscape:cy="12.5"
     inkscape:window-x="-9"
     inkscape:window-y="-9"
     inkscape:window-maximized="1"
     inkscape:current-layer="svg38" />
  <g
     fill="none"
     fill-rule="evenodd"
     id="g36">
    <path
       d="M37 6.299h5.227c.746 0 1.434.155 2.062.466.629.311 1.123.735 1.484 1.27s.542 1.12.542 1.754c0 .672-.165 1.254-.495 1.746-.33.491-.762.868-1.297 1.129v.15c.697.248 1.25.643 1.661 1.185.41.541.616 1.191.616 1.95 0 .735-.196 1.385-.588 1.951a3.817 3.817 0 0 1-1.587 1.307c-.665.305-1.403.457-2.212.457H37V6.299zm5.04 5.45c.548 0 .986-.152 1.316-.457.33-.305.495-.688.495-1.148 0-.448-.159-.824-.476-1.13-.318-.304-.738-.457-1.26-.457H39.52v3.192h2.52zm.28 5.619c.61 0 1.086-.159 1.428-.476.342-.317.513-.731.513-1.241 0-.51-.174-.927-.522-1.251-.349-.324-.847-.485-1.494-.485H39.52v3.453h2.8zm12.927 2.595c-1.307 0-2.492-.308-3.556-.924a6.711 6.711 0 0 1-2.511-2.53c-.61-1.07-.915-2.246-.915-3.528 0-1.281.305-2.457.915-3.528a6.711 6.711 0 0 1 2.51-2.529C52.756 6.308 53.94 6 55.248 6c1.306 0 2.492.308 3.556.924a6.711 6.711 0 0 1 2.51 2.53c.61 1.07.915 2.246.915 3.527 0 1.282-.305 2.458-.915 3.528a6.711 6.711 0 0 1-2.51 2.53c-1.064.616-2.25.924-3.556.924zm0-2.39a4.52 4.52 0 0 0 2.258-.578 4.177 4.177 0 0 0 1.615-1.624c.392-.697.588-1.494.588-2.39 0-.896-.196-1.692-.588-2.389a4.177 4.177 0 0 0-1.615-1.624 4.52 4.52 0 0 0-2.258-.579 4.47 4.47 0 0 0-2.25.579 4.195 4.195 0 0 0-1.605 1.624c-.392.697-.588 1.493-.588 2.39 0 .895.196 1.692.588 2.389a4.195 4.195 0 0 0 1.605 1.624 4.47 4.47 0 0 0 2.25.578zm15.353 2.39c-1.307 0-2.492-.308-3.556-.924a6.711 6.711 0 0 1-2.51-2.53c-.61-1.07-.915-2.246-.915-3.528 0-1.281.305-2.457.914-3.528a6.711 6.711 0 0 1 2.511-2.529C68.108 6.308 69.294 6 70.6 6c1.307 0 2.492.308 3.556.924a6.711 6.711 0 0 1 2.51 2.53c.61 1.07.915 2.246.915 3.527 0 1.282-.305 2.458-.914 3.528a6.711 6.711 0 0 1-2.511 2.53c-1.064.616-2.25.924-3.556.924zm0-2.39a4.52 4.52 0 0 0 2.259-.578 4.177 4.177 0 0 0 1.614-1.624c.392-.697.588-1.494.588-2.39 0-.896-.196-1.692-.588-2.389a4.177 4.177 0 0 0-1.614-1.624 4.52 4.52 0 0 0-2.259-.579 4.47 4.47 0 0 0-2.25.579 4.195 4.195 0 0 0-1.605 1.624c-.392.697-.588 1.493-.588 2.39 0 .895.196 1.692.588 2.389a4.195 4.195 0 0 0 1.606 1.624 4.47 4.47 0 0 0 2.249.578zM79.83 6.3h2.52v5.73h.15l4.89-5.73h3.043v.149L85.6 11.973l5.338 7.542v.149h-3.08l-3.994-5.693-1.512 1.773v3.92h-2.52V6.299zM93.779 6h3.248l3.546 9.39h.15L104.268 6h3.267v13.365h-2.501v-6.589l.15-2.221h-.15l-3.398 8.81h-1.96l-3.416-8.81h-.149l.15 2.221v6.59h-2.483V6zm20.8 0h2.894l5.021 13.365h-2.781l-1.12-3.192h-5.115l-1.12 3.192h-2.781L114.579 6zm3.193 7.859l-1.176-3.36-.486-1.606h-.149l-.485 1.606-1.195 3.36h3.49zM124.553 6h4.872c.871 0 1.646.18 2.324.541.678.361 1.204.862 1.577 1.503.374.64.56 1.366.56 2.175 0 .858-.27 1.62-.812 2.286a4.617 4.617 0 0 1-2.044 1.447l-.018.13 3.584 5.134v.15h-2.894l-3.453-5.022h-1.176v5.021h-2.52V6zm4.853 6.03c.573 0 1.04-.175 1.4-.523.361-.349.542-.79.542-1.326 0-.51-.172-.945-.514-1.306-.342-.361-.806-.542-1.39-.542h-2.371v3.696h2.333zm7.23-6.03h2.52v5.73h.15l4.89-5.73h3.043v.15l-4.835 5.525 5.34 7.541v.15h-3.08l-3.996-5.694-1.512 1.773v3.92h-2.52V6z"
       fill="#242A45"
       fill-rule="nonzero"
       id="path28" />
    <g
       id="g34">
      <circle
         fill="#5267DF"
         cx="12.5"
         cy="12.5"
         r="12.5"
         id="circle30" />
      <path
         d="M9 9v10l3.54-3.44L16.078 19V9a2 2 0 0 0-2-2H11a2 2 0 0 0-2 2z"
         fill="#FFF"
         id="path32" />
    </g>
  </g>
  <path
     style="fill:#ffffff;fill-opacity:1;stroke-width:0.08409091"
     d="M 37,12.970909 V 6.3277273 l 2.880114,0.00124 c 3.137455,0.00135 3.515631,0.042698 4.415933,0.4827741 0.651954,0.3186811 1.283225,0.9212849 1.624537,1.5507617 0.277563,0.5119057 0.287371,0.5615635 0.287371,1.454994 0,0.8465339 -0.0196,0.9621859 -0.231094,1.3633729 -0.304187,0.577029 -0.675306,0.990587 -1.125894,1.25465 -0.201782,0.118252 -0.366876,0.24703 -0.366876,0.286173 0,0.03914 0.223408,0.190244 0.496463,0.335781 1.088902,0.580379 1.679866,1.472461 1.753104,2.646377 0.1157,1.854519 -1.013354,3.256386 -3.045075,3.780859 -0.40682,0.105017 -1.083712,0.129378 -3.594887,0.129378 H 37 Z m 6.330127,4.216294 c 0.496467,-0.243645 0.783646,-0.608636 0.910175,-1.15679 0.208255,-0.902212 -0.343039,-1.818855 -1.227915,-2.041669 -0.203091,-0.05114 -1.069557,-0.09284 -1.92917,-0.09284 h -1.56049 v 1.774543 1.774543 l 1.702841,-0.03032 c 1.582352,-0.02818 1.731266,-0.04427 2.104559,-0.227469 z m -0.29776,-5.639652 c 0.195927,-0.112221 0.460813,-0.354952 0.588636,-0.539401 0.192353,-0.277564 0.232406,-0.424614 0.232406,-0.853238 0,-0.6390237 -0.279732,-1.119319 -0.81998,-1.4078911 -0.32826,-0.1753392 -0.485412,-0.1930892 -1.933997,-0.2184404 l -1.576705,-0.027593 v 1.6542015 1.654201 l 1.576705,-0.0289 c 1.487518,-0.02726 1.596855,-0.04044 1.932935,-0.232939 z"
     id="path46"
     inkscape:connector-curvature="0" />
  <path
     style="fill:#ffffff;fill-opacity:1;stroke-width:0.08409091"
     d="m 54.196591,19.862946 c -2.492821,-0.387953 -4.544974,-2.00812 -5.412402,-4.273073 -0.357665,-0.933902 -0.462825,-1.530457 -0.461667,-2.618964 0.003,-2.833156 1.532238,-5.2391553 4.037375,-6.3521898 1.66466,-0.7396099 3.92608,-0.7548973 5.663876,-0.038288 2.87749,1.186582 4.568545,4.2724868 4.086761,7.4576878 -0.424612,2.807217 -2.355717,4.969565 -5.054852,5.660152 -0.780611,0.199723 -2.133277,0.277633 -2.859091,0.164675 z m 2.124159,-2.393642 c 1.592948,-0.375575 2.838658,-1.599898 3.255272,-3.199384 0.167535,-0.643211 0.165201,-1.931342 -0.0047,-2.590282 -0.421313,-1.634078 -1.702236,-2.8578029 -3.356556,-3.2066741 -0.796804,-0.1680338 -1.323048,-0.1581651 -2.095088,0.03929 -1.969977,0.5038352 -3.186597,2.0265091 -3.306432,4.1382031 -0.0576,1.015027 0.06391,1.677385 0.459895,2.506816 0.872183,1.826894 2.990301,2.797089 5.047602,2.312031 z"
     id="path48"
     inkscape:connector-curvature="0" />
  <path
     style="fill:#ffffff;fill-opacity:1;stroke-width:0.08409091"
     d="m 69.579363,19.868206 c -3.045523,-0.432127 -5.364821,-2.736953 -5.845871,-5.809393 -0.1295,-0.827107 -0.04762,-2.223545 0.176992,-3.018744 0.772298,-2.7341177 3.114745,-4.6964441 5.90795,-4.9492372 2.85829,-0.2586833 5.250192,0.8831373 6.702627,3.1996274 0.732146,1.1677028 1.063674,2.5486928 0.989754,4.1228618 -0.141792,3.019528 -2.182549,5.54701 -5.076742,6.287558 -0.759231,0.194268 -2.107764,0.273311 -2.85471,0.167327 z m 1.998884,-2.364542 c 0.772248,-0.159861 1.63114,-0.627513 2.199652,-1.197673 1.981948,-1.987695 1.671312,-5.639549 -0.608551,-7.1541412 -2.66431,-1.7699942 -6.179441,-0.4265694 -6.912353,2.6417862 -0.151987,0.636298 -0.132807,1.861003 0.0395,2.522106 0.503689,1.932556 2.213753,3.2562 4.230618,3.274633 0.333036,0.003 0.806047,-0.03598 1.051136,-0.08671 z"
     id="path50"
     inkscape:connector-curvature="0" />
  <path
     style="fill:#ffffff;fill-opacity:1;stroke-width:0.08409091"
     d="M 79.886364,12.970909 V 6.3277273 H 81.105682 82.325 v 2.8590909 c 0,2.2323208 0.02304,2.8586348 0.105114,2.8570118 0.05781,-0.0011 1.200183,-1.287734 2.538602,-2.8590905 l 2.433488,-2.8570122 h 1.497762 c 0.823768,0 1.497218,0.028381 1.496554,0.063068 -6.65e-4,0.034687 -1.078792,1.2928977 -2.395839,2.7960227 -1.440192,1.643669 -2.377401,2.779602 -2.351402,2.849991 0.02378,0.06437 1.215426,1.772536 2.648111,3.795925 1.432686,2.023389 2.604883,3.701945 2.604883,3.730123 0,0.02818 -0.690597,0.04941 -1.534659,0.04719 l -1.534659,-0.004 -1.966078,-2.816357 c -1.081342,-1.548996 -1.993254,-2.805388 -2.02647,-2.791981 -0.03322,0.01341 -0.387772,0.409496 -0.787901,0.8802 L 82.325,15.733694 v 1.940198 1.940199 h -1.219318 -1.219318 z"
     id="path52"
     inkscape:connector-curvature="0" />
  <path
     style="fill:#ffffff;fill-opacity:1;stroke-width:0.08409091"
     d="M 93.845455,12.676591 V 5.9913636 h 1.557484 1.557485 l 0.10141,0.222572 c 0.05578,0.1224145 0.859618,2.2320452 1.786316,4.6880684 1.098778,2.912085 1.72508,4.465496 1.80038,4.465496 0.0754,0 0.72928,-1.627598 1.88345,-4.688068 l 1.76796,-4.6880684 h 1.58412 1.58412 v 6.6852274 6.685227 h -1.22867 -1.22868 l 0.0525,-3.889204 c 0.0289,-2.139063 0.0745,-4.130057 0.1014,-4.424433 0.0384,-0.420998 0.0252,-0.527354 -0.0618,-0.498336 -0.0609,0.02029 -0.86867,2.001825 -1.79511,4.40341 l -1.68444,4.366518 -0.96682,0.02106 -0.966827,0.02106 L 97.995,14.970794 c -0.932125,-2.415104 -1.726784,-4.401769 -1.765909,-4.414812 -0.03912,-0.01304 -0.0576,1.962934 -0.04106,4.391061 l 0.03007,4.414775 h -1.186322 -1.186322 z"
     id="path54"
     inkscape:connector-curvature="0" />
  <path
     style="fill:#ffffff;fill-opacity:1;stroke-width:0.08409091"
     d="m 109.65458,19.29875 c 2e-5,-0.03469 1.11216,-3.03358 2.47143,-6.664205 l 2.47139,-6.6011359 1.42271,-0.022939 1.4227,-0.022939 2.46661,6.5820309 c 1.35663,3.620116 2.4846,6.63029 2.50659,6.689274 0.0316,0.08475 -0.24667,0.102388 -1.32696,0.08409 l -1.36694,-0.02315 -0.54602,-1.576705 -0.54603,-1.576704 h -2.58672 c -1.99255,0 -2.59565,0.02414 -2.62563,0.105113 -0.0214,0.05781 -0.27629,0.77679 -0.56639,1.597728 l -0.52746,1.492613 h -1.33466 c -0.73406,0 -1.33464,-0.02838 -1.33462,-0.06307 z m 8.11253,-5.55 c -0.0342,-0.08094 -0.42464,-1.216673 -0.86755,-2.523856 -0.44291,-1.3071838 -0.84316,-2.3640712 -0.88946,-2.3486391 -0.0463,0.015432 -0.18497,0.3659687 -0.30817,0.77897 -0.1232,0.4130011 -0.49363,1.5086401 -0.82319,2.4347521 -0.32956,0.926112 -0.59919,1.711311 -0.59919,1.744886 0,0.03357 0.7987,0.06105 1.7749,0.06105 1.65804,0 1.77081,-0.0097 1.71266,-0.147159 z"
     id="path56"
     inkscape:connector-curvature="0" />
  <path
     style="fill:#ffffff;fill-opacity:1;stroke-width:0.08409091"
     d="M 124.62273,12.667552 V 5.9732852 l 2.83807,0.039681 c 3.11789,0.043594 3.48028,0.094304 4.36203,0.6103785 1.8287,1.0703176 2.54417,3.3634549 1.62978,5.2236233 -0.32238,0.655834 -1.19445,1.494196 -1.91365,1.83969 -0.28771,0.138213 -0.52361,0.295801 -0.52422,0.350196 -6.1e-4,0.05439 0.79356,1.235256 1.76481,2.624136 0.97125,1.38888 1.7659,2.564745 1.7659,2.613032 0,0.05753 -0.48551,0.08756 -1.40852,0.08712 l -1.40852,-6.72e-4 -1.72386,-2.519397 -1.72387,-2.519395 -0.60966,-0.0027 -0.60966,-0.0027 v 2.522727 2.522727 h -1.21931 -1.21932 z m 5.47244,-0.717627 c 0.1762,-0.05279 0.45983,-0.210938 0.63028,-0.351438 0.8033,-0.662147 0.83682,-2.0138059 0.069,-2.7808279 -0.42489,-0.4244375 -0.65143,-0.47175 -2.25876,-0.47175 h -1.4743 v 1.8499999 1.85 h 1.35672 c 0.77338,0 1.49447,-0.04127 1.67709,-0.09598 z"
     id="path58"
     inkscape:connector-curvature="0" />
  <path
     style="fill:#ffffff;fill-opacity:1;stroke-width:0.08409091"
     d="M 136.64773,12.676591 V 5.9913636 h 1.21821 1.21822 l 0.0221,2.8731306 c 0.014,1.8214458 0.0529,2.8830978 0.10622,2.9003588 0.0462,0.01498 1.19586,-1.277932 2.55468,-2.8731301 l 2.47059,-2.9003593 h 1.4557 c 0.80063,0 1.4732,0.028381 1.49459,0.063068 0.0214,0.034688 -1.05214,1.3103452 -2.38562,2.8347949 -1.33349,1.5244495 -2.40058,2.8110405 -2.37132,2.8590915 0.0293,0.04805 1.23747,1.759437 2.68491,3.803081 1.44743,2.043646 2.6317,3.737026 2.6317,3.763068 0,0.02604 -0.6906,0.04586 -1.53466,0.04403 l -1.53466,-0.0033 -1.3875,-1.986049 c -2.86253,-4.097387 -2.61166,-3.772702 -2.76533,-3.578976 -0.0747,0.09417 -0.42907,0.517257 -0.78751,0.940202 l -0.65171,0.768991 v 1.931234 1.931233 h -1.21931 -1.21932 z"
     id="path60"
     inkscape:connector-curvature="0" />
</svg>
