<?xml version="1.0" encoding="UTF-8" standalone="no"?>
<svg
   xmlns:dc="http://purl.org/dc/elements/1.1/"
   xmlns:cc="http://creativecommons.org/ns#"
   xmlns:rdf="http://www.w3.org/1999/02/22-rdf-syntax-ns#"
   xmlns:svg="http://www.w3.org/2000/svg"
   xmlns="http://www.w3.org/2000/svg"
   xmlns:sodipodi="http://sodipodi.sourceforge.net/DTD/sodipodi-0.dtd"
   xmlns:inkscape="http://www.inkscape.org/namespaces/inkscape"
   viewBox="1 -35 511.99993 511"
   version="1.1"
   id="svg32"
   sodipodi:docname="telegram.svg"
   inkscape:version="0.92.3 (2405546, 2018-03-11)">
  <metadata
     id="metadata38">
    <rdf:RDF>
      <cc:Work
         rdf:about="">
        <dc:format>image/svg+xml</dc:format>
        <dc:type
           rdf:resource="http://purl.org/dc/dcmitype/StillImage" />
      </cc:Work>
    </rdf:RDF>
  </metadata>
  <defs
     id="defs36" />
  <sodipodi:namedview
     pagecolor="#ffffff"
     bordercolor="#666666"
     borderopacity="1"
     objecttolerance="10"
     gridtolerance="10"
     guidetolerance="10"
     inkscape:pageopacity="0"
     inkscape:pageshadow="2"
     inkscape:window-width="1920"
     inkscape:window-height="1001"
     id="namedview34"
     showgrid="false"
     inkscape:zoom="1.6144814"
     inkscape:cx="255.99997"
     inkscape:cy="255.5"
     inkscape:window-x="-9"
     inkscape:window-y="-9"
     inkscape:window-maximized="1"
     inkscape:current-layer="svg32" />
  <path
     d="m121.453125 253.171875 63.554687 158.886719 82.75-82.753906 141.535157 112.503906 102.707031-441.308594-512 205.480469zm-39.933594-47.640625 244.046875-97.945312-194.074218 117.363281zm287.535157-89.25-161.980469 148.1875-19.484375 73.425781-36.035156-90.085937zm-149.851563 219.230469 9.816406-36.996094 15.144531 12.035156zm171.65625 53.394531-147.386719-117.152344 221.902344-203.007812zm0 0"
     id="path30" />
  <path
     style="fill:#ffffff;fill-opacity:1;stroke-width:0.61939394"
     d="m 168.73982,327.54184 c -9.77463,-24.43863 -17.56683,-44.62515 -17.31601,-44.85892 0.82502,-0.76893 212.7747,-128.79397 212.93779,-128.62189 0.0876,0.0924 -35.56031,32.84615 -79.21759,72.78604 l -79.37689,72.61798 -8.94844,33.91778 c -4.92164,18.65478 -9.25408,34.96967 -9.62763,36.25533 -0.66883,2.30189 -0.95039,1.65951 -18.45123,-42.09632 z"
     id="path40"
     inkscape:connector-curvature="0"
     transform="translate(1,-35)" />
  <path
     style="fill:#ffffff;fill-opacity:1;stroke-width:0.61939394"
     d="m 106.24868,250.30223 c -13.173804,-5.1469 -24.08969,-9.49735 -24.25752,-9.66768 -0.167831,-0.17034 53.06689,-21.72855 118.29937,-47.90715 65.23249,-26.17859 118.69424,-47.50123 118.80389,-47.38364 0.17794,0.19083 -178.98199,108.73199 -186.02605,112.70089 l -2.86731,1.61556 z"
     id="path42"
     inkscape:connector-curvature="0"
     transform="translate(1,-35)" />
  <path
     style="fill:#ffffff;fill-opacity:1;stroke-width:0.61939394"
     d="m 316.49266,365.34268 c -40.25875,-31.96781 -73.20999,-58.31309 -73.22497,-58.54507 -0.0333,-0.51509 219.9975,-201.87692 220.28234,-201.59207 0.15081,0.15081 -72.86858,314.93731 -73.70467,317.74077 -0.0852,0.28581 -33.09395,-25.63583 -73.3527,-57.60363 z"
     id="path44"
     inkscape:connector-curvature="0"
     transform="translate(1,-35)" />
  <path
     style="fill:#ffffff;fill-opacity:1;stroke-width:0.61939394"
     d="m 219.08409,368.47493 c 0,-0.54544 8.83835,-33.95946 9.05525,-34.23402 0.10072,-0.1275 3.42355,2.35511 7.38405,5.51691 l 7.20091,5.74873 -11.65914,11.67127 c -6.41253,6.4192 -11.73158,11.67127 -11.82011,11.67127 -0.0885,0 -0.16096,-0.16837 -0.16096,-0.37416 z"
     id="path46"
     inkscape:connector-curvature="0"
     transform="translate(1,-35)" />
  <path
     style="fill:#ffffff;fill-opacity:1;stroke-width:0.61939394"
     d="m 337.53954,420.25879 c -38.57421,-30.66 -70.34652,-55.74546 -70.60512,-55.74546 -0.25862,0 -18.86463,18.396 -41.34669,40.88 -22.48206,22.484 -41.05818,40.88 -41.28025,40.88 -0.22207,0 -14.65371,-35.62352 -32.07032,-79.16337 L 120.57062,287.94657 60.130054,264.46779 C 16.264901,247.4279 0.00446232,240.8546 0.83800286,240.49891 9.1344684,236.95867 509.95087,36.267707 510.19981,36.383563 510.61176,36.575283 408.45059,475.987 407.9917,475.99719 c -0.17448,0.004 -31.87795,-25.0784 -70.45216,-55.7384 z m 89.97545,-156.98738 c 20.27764,-87.19472 36.79368,-158.76008 36.70234,-159.03413 -0.0913,-0.27405 -50.00364,45.09818 -110.9162,100.82716 -60.91256,55.72899 -110.66467,101.55808 -110.56024,101.84241 0.10443,0.28434 33.21328,26.76045 73.57522,58.83581 61.83449,49.13945 73.45973,58.14143 73.8579,57.19172 0.2599,-0.6199 17.06335,-72.46824 37.34098,-159.66297 z m -230.70341,72.03951 9.4492,-35.70605 80.73893,-73.85113 c 44.4064,-40.61812 80.73893,-73.98234 80.73893,-74.1427 0,-0.16038 -1.04523,0.32116 -2.32273,1.07006 -10.16865,5.96115 -213.70066,129.15684 -214.26328,129.69122 -0.55093,0.52328 3.51057,11.27618 16.75454,44.35798 9.61497,24.017 17.69564,44.22473 17.95706,44.90606 0.39707,1.03491 0.55946,1.08588 0.98672,0.3097 0.28129,-0.511 4.76357,-16.99681 9.96063,-36.63514 z m 33.96593,22.77391 12.61118,-12.62244 -7.52728,-6.04217 c -4.14,-3.3232 -7.67141,-5.89805 -7.84757,-5.72188 -0.17616,0.17615 -1.39752,4.32464 -2.71412,9.21885 -3.96982,14.75697 -7.36883,27.79008 -7.24761,27.79008 0.0628,0 5.78925,-5.68009 12.7254,-12.62244 z m -2.79794,-156.7818 c 52.95402,-32.02267 96.18602,-58.32115 96.0711,-58.44108 -0.11492,-0.11993 -54.97173,21.76016 -121.90402,48.62242 -66.9323,26.86226 -121.56133,48.97984 -121.397853,49.15018 0.822146,0.85662 48.407083,19.08933 49.582103,18.99795 0.75275,-0.0585 44.69465,-26.3068 97.64867,-58.32947 z"
     id="path48"
     inkscape:connector-curvature="0"
     transform="translate(1,-35)" />
</svg>
